<svg width="279" height="94" viewBox="0 0 279 94" fill="none" xmlns="http://www.w3.org/2000/svg">
<rect y="0.5" width="279" height="93" rx="13.95" fill="url(#paint0_linear_142_455)"/>
<path d="M57.4379 48.7742C57.4662 46.6354 58.0481 44.5383 59.1295 42.6781C60.2109 40.8179 61.7567 39.255 63.6231 38.1347C62.4375 36.4815 60.8733 35.121 59.0549 34.1612C57.2364 33.2015 55.2138 32.6689 53.1477 32.6058C48.7402 32.1541 44.4674 35.1806 42.2214 35.1806C39.932 35.1806 36.474 32.6506 32.7503 32.7254C30.3417 32.8014 27.9944 33.4852 25.9369 34.7102C23.8795 35.9352 22.1822 37.6596 21.0104 39.7154C15.9344 48.2956 19.7206 60.9056 24.5831 67.8412C27.0159 71.2374 29.8591 75.0309 33.5795 74.8964C37.22 74.749 38.5797 72.63 42.9742 72.63C47.3279 72.63 48.6035 74.8964 52.3994 74.8109C56.3059 74.749 58.7671 71.3996 61.1146 67.9713C62.8626 65.5514 64.2077 62.877 65.1 60.0469C62.8304 59.1097 60.8936 57.5411 59.5311 55.5364C58.1686 53.5318 57.4406 51.18 57.4379 48.7742Z" fill="white"/>
<path d="M50.2683 28.0446C52.3983 25.5482 53.4477 22.3395 53.1936 19.1C49.9395 19.4337 46.9336 20.9521 44.7748 23.3526C43.7193 24.5254 42.9109 25.8897 42.3958 27.3677C41.8808 28.8456 41.6691 30.4082 41.7729 31.9661C43.4006 31.9824 45.0108 31.638 46.4824 30.9587C47.9539 30.2795 49.2484 29.283 50.2683 28.0446Z" fill="white"/>
<path d="M85.5391 20.0535H90.3515C94.5099 20.0535 96.5329 22.5261 96.5329 27.0115C96.5329 31.4969 94.4895 34.0001 90.3515 34.0001H85.5391V20.0535ZM87.8584 22.005V32.0486H90.096C92.8547 32.0486 94.1523 30.3832 94.1523 27.0422C94.1523 23.6807 92.8445 22.005 90.096 22.005H87.8584ZM103.869 23.0165C106.689 23.0165 108.661 24.8454 108.661 27.88V29.2797C108.661 32.4164 106.689 34.184 103.869 34.184C101.008 34.184 99.0566 32.4369 99.0566 29.29V27.8902C99.0566 24.9374 101.039 23.0165 103.869 23.0165ZM103.879 24.8454C102.265 24.8454 101.345 26.1941 101.345 28.0026V29.2082C101.345 31.0167 102.204 32.3551 103.879 32.3551C105.534 32.3551 106.382 31.0269 106.382 29.2082V28.0026C106.382 26.1941 105.493 24.8454 103.879 24.8454ZM125.315 23.2005L122.475 34.0001H120.166L117.907 26.0306H117.846L115.629 34.0001H113.31L110.347 23.2005H112.789L114.526 31.4356H114.628L116.804 23.2005H118.939L121.177 31.4356H121.279L123.047 23.2005H125.315ZM127.563 34.0001V23.2005H129.79V25.1417H129.903C130.178 24.2937 130.965 23.037 133.152 23.037C135.328 23.037 136.789 24.2426 136.789 26.705V34.0001H134.521V27.3691C134.521 25.7241 133.663 24.968 132.385 24.968C130.71 24.968 129.831 26.2554 129.831 28.0026V34.0001H127.563ZM140.222 34.0001V19.3179H142.49V34.0001H140.222ZM150.276 23.0165C153.096 23.0165 155.068 24.8454 155.068 27.88V29.2797C155.068 32.4164 153.096 34.184 150.276 34.184C147.415 34.184 145.464 32.4369 145.464 29.29V27.8902C145.464 24.9374 147.446 23.0165 150.276 23.0165ZM150.286 24.8454C148.672 24.8454 147.752 26.1941 147.752 28.0026V29.2082C147.752 31.0167 148.61 32.3551 150.286 32.3551C151.941 32.3551 152.789 31.0269 152.789 29.2082V28.0026C152.789 26.1941 151.9 24.8454 150.286 24.8454ZM160.943 34.1636C158.848 34.1636 157.408 32.8762 157.408 30.8634C157.408 28.9528 158.736 27.6654 161.229 27.6654H163.957V26.6539C163.957 25.4176 163.17 24.8352 161.924 24.8352C160.697 24.8352 160.146 25.3461 159.972 26.0613H157.816C157.949 24.2528 159.308 23.037 161.995 23.037C164.304 23.037 166.215 23.9974 166.215 26.6845V34.0001H164.059V32.6004H163.957C163.477 33.428 162.537 34.1636 160.943 34.1636ZM161.648 32.4062C162.935 32.4062 163.957 31.5275 163.957 30.3526V29.1878H161.586C160.268 29.1878 159.686 29.8519 159.686 30.751C159.686 31.8749 160.626 32.4062 161.648 32.4062ZM173.203 23.0574C174.726 23.0574 175.891 23.7317 176.309 24.825H176.422V19.3179H178.69V34.0001H176.483V32.2734H176.371C176.044 33.3667 174.746 34.1432 173.173 34.1432C170.69 34.1432 169.076 32.3756 169.076 29.525V27.6756C169.076 24.825 170.721 23.0574 173.203 23.0574ZM173.837 24.917C172.325 24.917 171.385 26.0409 171.385 28.0026V29.1878C171.385 31.1597 172.335 32.2836 173.888 32.2836C175.421 32.2836 176.422 31.1699 176.422 29.3308V27.6961C176.422 26.0306 175.329 24.917 173.837 24.917ZM191.145 23.0165C193.965 23.0165 195.937 24.8454 195.937 27.88V29.2797C195.937 32.4164 193.965 34.184 191.145 34.184C188.284 34.184 186.333 32.4369 186.333 29.29V27.8902C186.333 24.9374 188.315 23.0165 191.145 23.0165ZM191.155 24.8454C189.541 24.8454 188.621 26.1941 188.621 28.0026V29.2082C188.621 31.0167 189.48 32.3551 191.155 32.3551C192.81 32.3551 193.658 31.0269 193.658 29.2082V28.0026C193.658 26.1941 192.77 24.8454 191.155 24.8454ZM198.859 34.0001V23.2005H201.086V25.1417H201.199C201.475 24.2937 202.261 23.037 204.448 23.037C206.624 23.037 208.085 24.2426 208.085 26.705V34.0001H205.817V27.3691C205.817 25.7241 204.959 24.968 203.682 24.968C202.006 24.968 201.127 26.2554 201.127 28.0026V34.0001H198.859ZM216.862 23.272V20.5746H219.079V23.272H221.501V25.0498H219.079V30.7817C219.079 31.9567 219.518 32.2836 220.734 32.2836C221.041 32.2836 221.449 32.2632 221.623 32.2427V33.9797C221.439 34.0103 220.683 34.0716 220.172 34.0716C217.546 34.0716 216.831 33.1317 216.831 30.9656V25.0498H215.186V23.272H216.862ZM224.361 34.0001V19.3179H226.619V25.1417H226.732C226.967 24.3754 227.845 23.037 230.012 23.037C232.116 23.037 233.618 24.2528 233.618 26.7152V34.0001H231.36V27.3793C231.36 25.7343 230.451 24.968 229.164 24.968C227.539 24.968 226.619 26.2452 226.619 28.0026V34.0001H224.361ZM241.23 34.184C238.288 34.184 236.459 32.3756 236.459 29.3308V27.8698C236.459 24.8046 238.461 23.0165 241.097 23.0165C243.805 23.0165 245.716 24.8965 245.716 27.8698V29.1367H238.706V29.668C238.706 31.221 239.626 32.3654 241.22 32.3654C242.405 32.3654 243.222 31.8034 243.376 31.1291H245.593C245.46 32.3756 244.142 34.184 241.23 34.184ZM238.706 27.6552H243.498V27.5121C243.498 25.8876 242.548 24.8046 241.108 24.8046C239.667 24.8046 238.706 25.8876 238.706 27.5121V27.6552Z" fill="white"/>
<path d="M88.8291 73.0001H84.1087L93.713 45.1069H98.9033L108.487 73.0001H103.583L101.11 65.2759H91.3221L88.8291 73.0001ZM96.3286 49.9295H96.1447L92.3643 61.7202H100.068L96.3286 49.9295ZM121.515 73.3066C118.715 73.3066 116.59 71.9784 115.446 69.9962H115.282V80.1727H110.746V51.4008H115.16V54.5681H115.323C116.508 52.5042 118.715 51.1147 121.617 51.1147C126.46 51.1147 129.913 54.7725 129.913 61.2298V63.1507C129.913 69.5671 126.501 73.3066 121.515 73.3066ZM120.473 69.5671C123.354 69.5671 125.316 67.258 125.316 62.9054V61.3933C125.316 57.2042 123.476 54.8134 120.391 54.8134C117.223 54.8134 115.241 57.3881 115.241 61.3729V62.9054C115.241 66.9924 117.244 69.5671 120.473 69.5671ZM144.576 73.3066C141.776 73.3066 139.651 71.9784 138.507 69.9962H138.343V80.1727H133.807V51.4008H138.22V54.5681H138.384C139.569 52.5042 141.776 51.1147 144.678 51.1147C149.521 51.1147 152.974 54.7725 152.974 61.2298V63.1507C152.974 69.5671 149.562 73.3066 144.576 73.3066ZM143.533 69.5671C146.415 69.5671 148.376 67.258 148.376 62.9054V61.3933C148.376 57.2042 146.537 54.8134 143.452 54.8134C140.284 54.8134 138.302 57.3881 138.302 61.3729V62.9054C138.302 66.9924 140.305 69.5671 143.533 69.5671ZM162.375 65.2554H166.912C167.116 67.6667 169.241 69.7306 173.185 69.7306C176.802 69.7306 178.948 68.0345 178.948 65.3985C178.948 63.2733 177.517 62.1289 174.534 61.4137L169.956 60.2694C166.36 59.4316 163.131 57.2859 163.131 52.7495C163.131 47.416 167.79 44.4939 173.205 44.4939C178.621 44.4939 183.137 47.416 183.239 52.6269H178.784C178.58 50.2564 176.761 48.2947 173.144 48.2947C169.956 48.2947 167.79 49.8069 167.79 52.4021C167.79 54.2208 169.057 55.5286 171.652 56.1212L176.209 57.2451C180.398 58.2668 183.586 60.2489 183.586 64.9898C183.586 70.4662 179.152 73.5519 172.838 73.5519C165.072 73.5519 162.477 69.0154 162.375 65.2554ZM189.114 51.4008V46.1491H193.569V51.4008H197.779V55.0381H193.569V66.5632C193.569 68.9132 194.448 69.5671 196.879 69.5671C197.268 69.5671 197.635 69.5671 197.901 69.5262V73.0001C197.533 73.0614 196.675 73.1432 195.755 73.1432C190.504 73.1432 189.053 71.2632 189.053 66.9311V55.0381H186.069V51.4008H189.114ZM210.03 51.033C216.242 51.033 219.613 55.406 219.613 61.2911V63.0281C219.613 69.1176 216.262 73.3679 210.03 73.3679C203.797 73.3679 200.405 69.1176 200.405 63.0281V61.2911C200.405 55.4264 203.817 51.033 210.03 51.033ZM210.03 54.6703C206.658 54.6703 204.982 57.429 204.982 61.3524V63.0076C204.982 66.8698 206.637 69.7102 210.03 69.7102C213.422 69.7102 215.056 66.8902 215.056 63.0076V61.3524C215.056 57.4085 213.401 54.6703 210.03 54.6703ZM223.445 73.0001V51.4008H227.982V54.2412H228.145C228.697 52.8925 230.311 51.0943 233.315 51.0943C233.908 51.0943 234.419 51.1351 234.848 51.2169V55.222C234.46 55.1199 233.663 55.0586 232.907 55.0586C229.269 55.0586 228.043 57.3064 228.043 60.2081V73.0001H223.445ZM245.852 73.3679C240.069 73.3679 236.391 69.5467 236.391 63.1507V60.9642C236.391 54.936 239.988 51.033 245.668 51.033C251.431 51.033 254.905 55.079 254.905 61.1685V63.2324H240.866V63.7433C240.866 67.3806 242.828 69.7919 245.914 69.7919C248.223 69.7919 249.796 68.6476 250.348 66.788H254.66C254.006 70.2823 251.186 73.3679 245.852 73.3679ZM240.866 60.065H250.471V60.0242C250.471 56.959 248.57 54.5477 245.689 54.5477C242.767 54.5477 240.866 56.959 240.866 60.0242V60.065Z" fill="white"/>
<defs>
<linearGradient id="paint0_linear_142_455" x1="139.5" y1="0.5" x2="139.5" y2="93.5" gradientUnits="userSpaceOnUse">
<stop stop-color="#7E9CF0"/>
<stop offset="1" stop-color="#AC7EF0"/>
</linearGradient>
</defs>
</svg>
