<svg width="144" height="225" viewBox="0 0 144 225" fill="none" xmlns="http://www.w3.org/2000/svg">
<g filter="url(#filter0_d_142_1029)">
<path d="M132.994 110.267C125.096 119.18 119.484 130.07 114.951 141.238C111.801 149.002 109.122 157.037 106.573 164.683C105.469 167.992 104.391 171.228 103.308 174.337C99.6778 184.768 96.0085 193.78 91.2033 200.181C86.4914 206.457 80.8187 210.064 73 210.064C69.1175 210.064 66.0281 208.903 63.4286 206.859C60.7803 204.778 58.5331 201.694 56.5539 197.706C52.6562 189.853 50.109 179.182 47.3253 167.521L47.1207 166.664C44.2929 154.823 41.2038 142.131 36.131 131.283C31.042 120.401 23.8223 111.077 12.565 106.307C10.057 105.244 8.53411 103.085 8.64772 100.977C9.29151 89.0264 11.9898 81.9585 15.8292 76.8693C19.5038 71.9985 24.3419 68.7399 30.2778 64.7419C30.671 64.477 31.0691 64.2089 31.472 63.9369C37.8868 59.6052 45.2045 54.4531 52.5258 45.7933C59.8441 37.137 67.0818 25.0808 73.565 6.98239C74.3706 4.7335 76.3306 3.5449 78.0137 3.84172C84.4954 4.98478 88.9707 8.47306 92.6493 14.0081C96.4102 19.6669 99.243 27.3223 102.363 36.6065C102.875 38.1312 103.394 39.6946 103.924 41.2932C109.792 58.9923 117.091 81.004 133.443 102.549C135.129 104.769 134.958 108.05 132.994 110.267Z" stroke="url(#paint0_linear_142_1029)" stroke-width="5"/>
<path d="M116.044 109.355C110.431 116.179 106.429 124.344 103.175 132.609C101.051 138.006 99.1966 143.588 97.4322 148.899C96.5144 151.661 95.6211 154.35 94.727 156.9C92.0606 164.507 89.3659 170.963 85.8862 175.51C82.4997 179.936 78.4898 182.413 73.0001 182.413C67.7999 182.413 64.2915 179.434 61.4288 173.768C58.508 167.986 56.6 160.026 54.4977 151.185L54.4684 151.062C52.4098 142.404 50.1788 133.021 46.5701 124.889C42.934 116.694 37.7667 109.455 29.6404 105.453C27.0631 104.184 25.563 102.006 25.7179 99.9604C26.3442 91.6915 28.3753 86.8347 31.1441 83.3158C33.7863 79.9578 37.2039 77.6468 41.4849 74.7519C41.8328 74.5167 42.1863 74.2776 42.5456 74.0338C47.2563 70.8373 52.6478 67.0014 58.0475 60.6429C63.4446 54.2874 68.7685 45.5126 73.5556 32.4777C74.4092 30.1535 76.3252 29.1295 77.8073 29.504C81.9932 30.5617 84.9844 33.1401 87.5296 37.2143C90.1336 41.3826 92.1519 46.9244 94.4034 53.6637C94.7534 54.7114 95.1077 55.784 95.4695 56.8794C99.7116 69.7204 104.987 85.6885 116.474 101.422C118.13 103.69 117.966 107.019 116.044 109.355Z" stroke="url(#paint1_linear_142_1029)" stroke-width="5"/>
<path d="M103.348 109.559C99.4461 114.764 96.6463 120.832 94.3478 126.877C92.9939 130.438 91.7545 134.167 90.5752 137.715C89.7919 140.072 89.0352 142.349 88.289 144.443C86.3463 149.897 84.3855 154.41 81.9065 157.55C79.5208 160.571 76.7574 162.206 73.0001 162.206C69.5325 162.206 67.1295 160.304 65.0815 156.367C62.9707 152.31 61.564 146.666 60.0327 140.232C59.9643 139.945 59.8958 139.656 59.8269 139.367C58.3878 133.31 56.8222 126.721 54.3971 120.886C51.8508 114.76 48.231 109.14 42.4765 105.742C39.7998 104.161 38.3418 102.026 38.5542 100.077C39.151 94.6009 40.6604 91.4037 42.6233 89.0555C44.49 86.8226 46.8467 85.2276 49.8726 83.1797C50.1899 82.965 50.5145 82.7453 50.8467 82.5193C54.2745 80.1879 58.2114 77.3613 62.1614 72.765C66.1097 68.1706 69.9931 61.9026 73.5042 52.7247C73.9222 51.6319 74.6495 50.7228 75.4292 50.2109C76.1661 49.7271 76.8476 49.6422 77.4956 49.8818C80.0324 50.8193 81.9585 52.7031 83.6786 55.6803C85.4328 58.7163 86.8435 62.6583 88.4409 67.4551C88.6673 68.1351 88.8966 68.8294 89.1302 69.5371C92.1492 78.6797 95.9005 90.0403 103.753 101.333C105.377 103.669 105.216 107.067 103.348 109.559Z" stroke="url(#paint2_linear_142_1029)" stroke-width="5"/>
<path d="M89.6495 109.979C87.5159 113.4 85.9521 117.201 84.6354 120.872C84.0368 122.54 83.4801 124.209 82.9458 125.81C82.8916 125.972 82.8376 126.134 82.7838 126.295C82.1958 128.056 81.6331 129.725 81.0487 131.287C79.8621 134.457 78.6748 136.927 77.2549 138.59C75.9271 140.145 74.4577 140.937 72.4684 140.937C70.7619 140.937 69.5194 140.107 68.3424 138.005C67.0911 135.771 66.2093 132.57 65.2704 128.695C65.1427 128.167 65.0141 127.629 64.8836 127.082C64.089 123.753 63.221 120.117 62.003 116.777C60.5827 112.883 58.58 109.069 55.3464 106.384C54.0754 105.328 52.9576 104.243 52.2357 103.138C51.5342 102.063 51.3279 101.166 51.5015 100.325C52.0237 97.7967 52.9411 96.2979 54.0822 95.1201C55.1335 94.0351 56.3776 93.1969 58.021 92.0896C58.343 91.8727 58.6804 91.6454 59.0346 91.4039C63.3511 88.4611 68.4955 84.3942 72.8707 74.0086C73.3363 72.9032 74.1195 71.9835 74.8617 71.5346C75.5163 71.1388 75.8831 71.2065 76.2234 71.4393C77.2767 72.1597 78.1983 73.339 79.1011 75.1608C80.0099 76.9949 80.7958 79.2577 81.7053 81.9882C81.8018 82.2778 81.8993 82.5716 81.9981 82.8694C83.7325 88.0952 85.8781 94.5603 89.9773 101.106C91.5456 103.61 91.3863 107.195 89.6495 109.979Z" stroke="url(#paint3_linear_142_1029)" stroke-width="5"/>
<path d="M80.4307 110.618C79.5597 112.528 78.874 114.518 78.2642 116.337C78.1925 116.551 78.122 116.762 78.0525 116.971C77.5156 118.578 77.0382 120.007 76.506 121.266C75.2452 124.25 74.2193 124.984 73.0001 124.984C72.5396 124.984 72.1839 124.848 71.7107 124.12C71.1474 123.254 70.6762 121.892 70.1814 119.982C70.0186 119.354 69.8481 118.642 69.6685 117.893C69.3549 116.584 69.0137 115.16 68.6382 113.865C68.0255 111.753 67.2037 109.514 65.8986 107.619C65.5199 107.07 65.0807 106.486 64.675 105.947C64.5203 105.742 64.3705 105.543 64.2308 105.355C63.6878 104.623 63.2322 103.972 62.8917 103.358C62.1926 102.096 62.2768 101.56 62.4849 101.186C63.0185 100.227 63.7023 99.7623 65.0676 98.8352C65.4416 98.5812 65.8669 98.2925 66.3542 97.9493C68.4996 96.4383 70.9478 94.3261 73.149 90.0665C73.7167 88.9679 74.5879 88.1082 75.2389 87.7877C75.3161 87.7497 75.3778 87.7252 75.4249 87.7094C75.4314 87.7189 75.4383 87.7292 75.4456 87.7405C76.1584 88.8434 76.7106 90.4523 77.501 92.8313L77.5133 92.8681C78.2623 95.1226 79.1696 97.8537 80.5954 100.701C82.0145 103.534 81.8714 107.457 80.4307 110.618Z" stroke="url(#paint4_linear_142_1029)" stroke-width="5"/>
</g>
<defs>
<filter id="filter0_d_142_1029" x="0.118886" y="1.29303" width="143.001" height="223.315" filterUnits="userSpaceOnUse" color-interpolation-filters="sRGB">
<feFlood flood-opacity="0" result="BackgroundImageFix"/>
<feColorMatrix in="SourceAlpha" type="matrix" values="0 0 0 0 0 0 0 0 0 0 0 0 0 0 0 0 0 0 127 0" result="hardAlpha"/>
<feOffset dy="6.02247"/>
<feGaussianBlur stdDeviation="3.01124"/>
<feComposite in2="hardAlpha" operator="out"/>
<feColorMatrix type="matrix" values="0 0 0 0 0 0 0 0 0 0 0 0 0 0 0 0 0 0 0.25 0"/>
<feBlend mode="normal" in2="BackgroundImageFix" result="effect1_dropShadow_142_1029"/>
<feBlend mode="normal" in="SourceGraphic" in2="effect1_dropShadow_142_1029" result="shape"/>
</filter>
<linearGradient id="paint0_linear_142_1029" x1="73" y1="0.928589" x2="73" y2="212.564" gradientUnits="userSpaceOnUse">
<stop offset="0.255" stop-color="#7E9CF0"/>
<stop offset="0.835" stop-color="#AC7EF0"/>
</linearGradient>
<linearGradient id="paint1_linear_142_1029" x1="73.0001" y1="26.4524" x2="73.0001" y2="184.913" gradientUnits="userSpaceOnUse">
<stop offset="0.255" stop-color="#7E9CF0"/>
<stop offset="0.835" stop-color="#AC7EF0"/>
</linearGradient>
<linearGradient id="paint2_linear_142_1029" x1="73.0001" y1="46.6588" x2="73.0001" y2="164.706" gradientUnits="userSpaceOnUse">
<stop offset="0.255" stop-color="#7E9CF0"/>
<stop offset="0.835" stop-color="#AC7EF0"/>
</linearGradient>
<linearGradient id="paint3_linear_142_1029" x1="72.4684" y1="67.9286" x2="72.4684" y2="143.437" gradientUnits="userSpaceOnUse">
<stop offset="0.255" stop-color="#7E9CF0"/>
<stop offset="0.835" stop-color="#AC7EF0"/>
</linearGradient>
<linearGradient id="paint4_linear_142_1029" x1="73.0001" y1="83.8809" x2="73.0001" y2="127.484" gradientUnits="userSpaceOnUse">
<stop offset="0.255" stop-color="#7E9CF0"/>
<stop offset="0.835" stop-color="#AC7EF0"/>
</linearGradient>
</defs>
</svg>
