<svg width="1191" height="1591" viewBox="0 0 1191 1591" fill="none" xmlns="http://www.w3.org/2000/svg">
<path d="M1157.19 814.079C1030.24 925.709 966.42 1087.61 908.995 1233.29C900.413 1255.06 891.973 1276.47 883.486 1297.29C850.683 1377.8 817.3 1449.41 772.662 1500.93C728.32 1552.11 672.941 1583.38 595.5 1583.38C556.492 1583.38 525.005 1573.2 498.799 1555.35C472.509 1537.43 451.179 1511.54 432.965 1479.61C398.855 1419.82 376.379 1340.22 352.403 1255.32C350.672 1249.19 348.934 1243.03 347.182 1236.85C321.298 1145.52 292.704 1049.72 245.179 969.592C197.518 889.232 130.636 824.312 28.2159 795.151C15.6768 791.581 6.67401 780.168 7.12734 767.93C10.7601 669.864 34.483 610.704 70.8628 567.92C105.508 527.177 152.002 500.721 206.16 469.904C209.348 468.09 212.563 466.261 215.803 464.413C273.835 431.315 339.205 392.569 404.544 326.324C469.9 260.062 534.98 166.55 593.06 24.0735C597.298 13.6751 607.547 6.67139 617.987 7.3373C689.598 11.9047 737.632 38.6926 775.008 81.7719C812.729 125.249 839.784 185.509 868.61 257.598C874.059 271.225 879.563 285.252 885.207 299.636C939.103 436.998 1005.78 606.929 1159.66 772.057C1170.73 783.937 1169.57 803.185 1157.19 814.079Z" stroke="url(#paint0_linear_191_30)" stroke-opacity="0.25" stroke-width="13.2809"/>
<path d="M1006.24 806.534C915.957 890.093 869.506 1008.38 827.755 1114.69C820.822 1132.35 814.018 1149.67 807.164 1166.45C782.935 1225.78 758.198 1278.17 725.291 1315.75C692.675 1353 652.087 1375.64 595.5 1375.64C566.926 1375.64 543.903 1368.22 524.737 1355.23C505.487 1342.19 489.775 1323.28 476.299 1299.82C450.627 1255.12 433.784 1195.26 415.723 1131.07C414.723 1127.51 413.718 1123.94 412.708 1120.36C393.596 1052.59 372.609 981.085 337.901 920.83C303.07 860.364 254.215 810.849 179.329 787.487C166.681 783.542 157.915 772.435 158.521 760.355C162.062 689.761 180.001 647.234 206.871 616.343C232.364 587.036 266.236 567.69 305.924 545.022C308.562 543.515 311.226 541.994 313.915 540.454C356.802 515.89 405.14 487.016 453.486 438.034C501.849 389.035 549.978 320.171 593.047 215.777C597.375 205.287 607.407 198.438 617.66 199.337C668.474 203.792 702.725 223.961 729.601 255.786C756.797 287.989 776.568 332.254 797.711 385.325C801.763 395.498 805.858 405.972 810.058 416.716C849.511 517.639 898.255 642.329 1008.76 764.013C1019.65 776.007 1018.46 795.231 1006.24 806.534Z" stroke="url(#paint1_linear_191_30)" stroke-opacity="0.25" stroke-width="13.2809"/>
<path d="M893.095 807.121C830.205 869.142 796.797 954.258 766.806 1030.67C761.107 1045.19 755.531 1059.39 749.9 1073.07C732.102 1116.28 713.855 1154.06 689.761 1181.05C665.953 1207.72 636.46 1223.83 595.496 1223.83C574.747 1223.83 558.068 1218.5 544.183 1209.21C530.218 1199.86 518.727 1186.27 508.81 1169.25C489.453 1136.03 476.829 1091.14 463.19 1042.65C462.753 1041.09 462.316 1039.54 461.877 1037.98C447.848 988.136 432.571 935.141 407.496 890.031C382.317 844.732 347.028 806.95 292.847 787.988C280.101 783.527 271.351 772.337 272.19 760.426C275.685 710.825 289.272 680.976 309.018 659.125C327.617 638.543 351.97 624.626 380.7 608.208C382.991 606.899 385.311 605.574 387.657 604.228C419.171 586.151 454.701 564.778 490.265 528.917C525.845 493.041 561.226 442.912 593.003 367.469C597.432 356.953 607.478 350.262 617.513 351.499C652.681 355.835 676.6 370.941 695.611 394.226C714.907 417.858 729.201 449.961 744.558 488.534C747.555 496.063 750.585 503.817 753.694 511.772C782.279 584.928 817.525 675.131 895.421 763.674C906.179 775.903 905.05 795.332 893.095 807.121Z" stroke="url(#paint2_linear_191_30)" stroke-opacity="0.25" stroke-width="13.2809"/>
<path d="M770.633 808.446C748.867 832.868 733.105 861.518 720.04 890.417C712.318 907.499 705.339 925.165 698.651 942.095C694.17 953.439 689.82 964.453 685.463 974.738C674.365 1000.94 662.9 1023.33 648.024 1039.18C633.422 1054.73 615.492 1064.03 590.766 1064.03C578.149 1064.03 568.067 1060.89 559.679 1055.46C551.222 1049.99 544.14 1041.98 537.945 1031.75C525.413 1011.05 517.247 982.619 508.389 951.276L507.994 949.88C499.365 919.343 490.074 886.466 475.258 857.842C460.139 828.634 439.005 803.317 406.404 789.069C393.393 783.383 384.78 772.395 386.172 760.941C389.523 733.366 398.462 716.73 410.781 704.267C422.155 692.758 436.572 684.558 453.769 674.776C455.758 673.645 457.783 672.493 459.846 671.312C479.494 660.062 501.637 646.604 523.842 624.57C546.063 602.521 568.127 572.108 588.103 527.079C592.846 516.386 602.688 510.093 612.037 512.032C649.846 519.875 665.688 550.234 684.442 597.119C686.348 601.882 688.276 606.793 690.256 611.836C707.485 655.713 728.626 709.556 772.728 763.051C783.215 775.772 782.09 795.59 770.633 808.446Z" stroke="url(#paint3_linear_191_30)" stroke-opacity="0.25" stroke-width="13.2809"/>
<path d="M686.896 810.779C676.823 825.214 669.298 841.167 662.814 856.691C660.092 863.206 657.604 869.511 655.194 875.616C651.729 884.395 648.426 892.763 644.826 900.757C638.808 914.117 632.535 925.006 624.726 932.549C617.156 939.861 607.996 944.177 595.498 944.177C583.059 944.177 574.926 938.519 568.422 928.548C561.607 918.101 556.972 903.454 552.123 886.475C551.562 884.508 550.998 882.513 550.428 880.496C546.19 865.5 541.614 849.309 535.052 834.555C527.568 817.727 517.217 802.071 501.079 791.549C494.885 787.51 489.188 782.652 485.539 777.39C481.962 772.231 480.635 767.156 482.004 761.984C487.289 742.017 499.505 735.047 517.852 724.581C519.663 723.548 521.534 722.481 523.464 721.363C544.944 708.928 570.48 691.57 592.364 646.963C594.926 641.741 598.814 637.264 603.028 634.715C607.108 632.248 611.148 631.727 615.042 633.411C629.95 639.86 637.686 655.036 647.198 678.847C648.234 681.441 649.285 684.116 650.365 686.866C658.92 708.647 669.291 735.05 688.402 761.847C698.193 775.575 697.088 796.175 686.896 810.779Z" stroke="url(#paint4_linear_191_30)" stroke-opacity="0.25" stroke-width="13.2809"/>
<defs>
<linearGradient id="paint0_linear_191_30" x1="595.5" y1="0" x2="595.5" y2="1590.02" gradientUnits="userSpaceOnUse">
<stop offset="0.255" stop-color="#7E9CF0"/>
<stop offset="0.835" stop-color="#AC7EF0"/>
</linearGradient>
<linearGradient id="paint1_linear_191_30" x1="595.5" y1="191.762" x2="595.5" y2="1382.28" gradientUnits="userSpaceOnUse">
<stop offset="0.255" stop-color="#7E9CF0"/>
<stop offset="0.835" stop-color="#AC7EF0"/>
</linearGradient>
<linearGradient id="paint2_linear_191_30" x1="595.496" y1="343.573" x2="595.496" y2="1230.47" gradientUnits="userSpaceOnUse">
<stop offset="0.255" stop-color="#7E9CF0"/>
<stop offset="0.835" stop-color="#AC7EF0"/>
</linearGradient>
<linearGradient id="paint3_linear_191_30" x1="590.766" y1="503.375" x2="590.766" y2="1070.67" gradientUnits="userSpaceOnUse">
<stop offset="0.255" stop-color="#7E9CF0"/>
<stop offset="0.835" stop-color="#AC7EF0"/>
</linearGradient>
<linearGradient id="paint4_linear_191_30" x1="595.498" y1="623.225" x2="595.498" y2="950.818" gradientUnits="userSpaceOnUse">
<stop offset="0.255" stop-color="#7E9CF0"/>
<stop offset="0.835" stop-color="#AC7EF0"/>
</linearGradient>
</defs>
</svg>
