<svg width="279" height="94" viewBox="0 0 279 94" fill="none" xmlns="http://www.w3.org/2000/svg">
<rect y="0.5" width="279" height="93" rx="13.95" fill="url(#paint0_linear_142_463)"/>
<path d="M41.3962 45.7484L18.8083 70.2638C18.8105 70.2681 18.8105 70.2746 18.8126 70.279C19.5063 72.941 21.8824 74.9 24.7041 74.9C25.8327 74.9 26.8914 74.5876 27.7994 74.0409L27.8715 73.9975L53.2959 58.9954L41.3962 45.7484Z" fill="#7E9CF0"/>
<path d="M64.247 41.5739L64.2258 41.5587L53.249 35.0523L40.8826 46.3055L53.2935 58.9928L64.2109 52.5515C66.1245 51.4928 67.425 49.4296 67.425 47.0519C67.425 44.6871 66.1436 42.6348 64.247 41.5739Z" fill="#986DD7"/>
<path d="M18.8079 23.7346C18.6721 24.2466 18.6 24.7846 18.6 25.34V68.6607C18.6 69.216 18.6721 69.7541 18.81 70.2639L42.1722 46.3755L18.8079 23.7346Z" fill="#4285F4"/>
<path d="M41.5631 46.9998L53.2527 35.048L27.858 19.9916C26.9352 19.4254 25.8574 19.1 24.7055 19.1C21.8838 19.1 19.5035 21.0634 18.8097 23.7275C18.8097 23.7297 18.8076 23.7318 18.8076 23.734L41.5631 46.9998Z" fill="#B9D5FF"/>
<path d="M125.885 21.2174C125.885 22.7091 125.442 23.8974 124.557 24.7825C123.563 25.8366 122.255 26.3637 120.634 26.3637C119.083 26.3637 117.77 25.8267 116.696 24.7527C115.622 23.6787 115.085 22.3561 115.085 20.7848C115.085 19.2136 115.622 17.891 116.696 16.817C117.77 15.743 119.083 15.206 120.634 15.206C121.42 15.206 122.161 15.3452 122.857 15.6237C123.553 15.9021 124.125 16.2949 124.572 16.8021L123.588 17.7866C123.26 17.3888 122.832 17.0805 122.305 16.8617C121.788 16.633 121.231 16.5187 120.634 16.5187C119.471 16.5187 118.486 16.9214 117.681 17.7269C116.885 18.5424 116.487 19.5617 116.487 20.7848C116.487 22.008 116.885 23.0273 117.681 23.8427C118.486 24.6482 119.471 25.051 120.634 25.051C121.698 25.051 122.583 24.7527 123.289 24.156C123.995 23.5593 124.403 22.7389 124.513 21.6947H120.634V20.4119H125.81C125.86 20.6904 125.885 20.9589 125.885 21.2174ZM133.788 15.4447V16.7573H128.925V20.1434H133.31V21.4262H128.925V24.8123H133.788V26.125H127.552V15.4447H133.788ZM139.277 16.7573V26.125H137.904V16.7573H134.921V15.4447H142.26V16.7573H139.277ZM148.343 26.125H146.97V15.4447H148.343V26.125ZM154.135 16.7573V26.125H152.763V16.7573H149.779V15.4447H157.118V16.7573H154.135ZM171.994 20.7848C171.994 22.366 171.467 23.6886 170.413 24.7527C169.349 25.8267 168.046 26.3637 166.505 26.3637C164.953 26.3637 163.65 25.8267 162.596 24.7527C161.542 23.6886 161.015 22.366 161.015 20.7848C161.015 19.2037 161.542 17.8811 162.596 16.817C163.65 15.743 164.953 15.206 166.505 15.206C168.056 15.206 169.359 15.748 170.413 16.8319C171.467 17.896 171.994 19.2136 171.994 20.7848ZM162.417 20.7848C162.417 22.0179 162.805 23.0372 163.581 23.8427C164.366 24.6482 165.341 25.051 166.505 25.051C167.668 25.051 168.638 24.6482 169.413 23.8427C170.199 23.0472 170.592 22.0279 170.592 20.7848C170.592 19.5418 170.199 18.5225 169.413 17.7269C168.638 16.9214 167.668 16.5187 166.505 16.5187C165.341 16.5187 164.366 16.9214 163.581 17.7269C162.805 18.5324 162.417 19.5517 162.417 20.7848ZM174.986 26.125H173.613V15.4447H175.284L180.475 23.7532H180.535L180.475 21.6947V15.4447H181.847V26.125H180.415L174.986 17.4137H174.926L174.986 19.4722V26.125Z" fill="white"/>
<path d="M217.43 57.6274H221.217V32.0257H217.43V57.6274ZM251.539 41.2477L247.198 52.3477H247.068L242.563 41.2477H238.483L245.239 56.7611L241.39 65.3913H245.337L255.75 41.2477H251.539ZM230.063 54.7193C228.821 54.7193 227.092 54.0947 227.092 52.5443C227.092 50.5701 229.245 49.8123 231.106 49.8123C232.77 49.8123 233.556 50.1748 234.566 50.6684C234.272 53.04 232.249 54.7193 230.063 54.7193ZM230.52 40.6886C227.778 40.6886 224.937 41.9071 223.764 44.6084L227.124 46.0236C227.843 44.6084 229.18 44.1456 230.585 44.1456C232.543 44.1456 234.534 45.3314 234.566 47.4408V47.7029C233.881 47.3077 232.413 46.7158 230.617 46.7158C226.995 46.7158 223.305 48.7249 223.305 52.4788C223.305 55.9051 226.276 58.1128 229.604 58.1128C232.151 58.1128 233.556 56.9598 234.437 55.6081H234.566V57.5844H238.222V47.7685C238.222 43.224 234.861 40.6886 230.52 40.6886M207.116 44.3647H201.73V35.5891H207.116C209.947 35.5891 211.554 37.9546 211.554 39.9759C211.554 41.9604 209.947 44.3647 207.116 44.3647ZM207.018 32.0257H197.945V57.6274H201.73V47.9282H207.018C211.215 47.9282 215.341 44.8603 215.341 39.9759C215.341 35.0915 211.215 32.0257 207.018 32.0257M157.538 54.7234C154.922 54.7234 152.732 52.5136 152.732 49.4785C152.732 46.4107 154.922 44.1661 157.538 44.1661C160.122 44.1661 162.147 46.4107 162.147 49.4785C162.147 52.5136 160.122 54.7234 157.538 54.7234ZM161.887 42.6813H161.755C160.905 41.6593 159.271 40.7357 157.211 40.7357C152.895 40.7357 148.939 44.5613 148.939 49.4785C148.939 54.3609 152.895 58.1558 157.211 58.1558C159.271 58.1558 160.905 57.2322 161.755 56.1754H161.887V57.4308C161.887 60.7629 160.122 62.5446 157.276 62.5446C154.955 62.5446 153.516 60.8612 152.927 59.4419L149.625 60.8284C150.573 63.1385 153.092 65.975 157.276 65.975C161.723 65.975 165.483 63.3351 165.483 56.9024V41.262H161.887V42.6813ZM168.099 57.6274H171.892V32.0236H168.099V57.6274ZM177.482 49.1816C177.384 45.8167 180.065 44.1005 181.993 44.1005C183.499 44.1005 184.774 44.8583 185.198 45.9478L177.482 49.1816ZM189.253 46.2775C188.534 44.332 186.342 40.7357 181.863 40.7357C177.417 40.7357 173.723 44.2644 173.723 49.4458C173.723 54.3281 177.384 58.1558 182.287 58.1558C186.245 58.1558 188.534 55.7146 189.482 54.2954L186.539 52.315C185.559 53.767 184.217 54.7234 182.287 54.7234C180.359 54.7234 178.985 53.8325 178.103 52.0856L189.644 47.2667L189.253 46.2775ZM97.3015 43.4083V47.1029H106.063C105.801 49.1816 105.115 50.6991 104.07 51.7538C102.793 53.042 100.798 54.4612 97.3015 54.4612C91.9051 54.4612 87.6879 50.0724 87.6879 44.6289C87.6879 39.1833 91.9051 34.7966 97.3015 34.7966C100.212 34.7966 102.337 35.9516 103.905 37.4364L106.489 34.8293C104.297 32.7179 101.389 31.1 97.3015 31.1C89.9122 31.1 83.7 37.1722 83.7 44.6289C83.7 52.0856 89.9122 58.1558 97.3015 58.1558C101.289 58.1558 104.297 56.8349 106.651 54.3609C109.072 51.9197 109.823 48.4893 109.823 45.7164C109.823 44.8583 109.758 44.0678 109.626 43.4083H97.3015ZM119.786 54.7234C117.17 54.7234 114.913 52.5464 114.913 49.4458C114.913 46.3103 117.17 44.1661 119.786 44.1661C122.4 44.1661 124.657 46.3103 124.657 49.4458C124.657 52.5464 122.4 54.7234 119.786 54.7234ZM119.786 40.7357C115.011 40.7357 111.12 44.3975 111.12 49.4458C111.12 54.4612 115.011 58.1558 119.786 58.1558C124.559 58.1558 128.45 54.4612 128.45 49.4458C128.45 44.3975 124.559 40.7357 119.786 40.7357ZM138.686 54.7234C136.07 54.7234 133.814 52.5464 133.814 49.4458C133.814 46.3103 136.07 44.1661 138.686 44.1661C141.302 44.1661 143.557 46.3103 143.557 49.4458C143.557 52.5464 141.302 54.7234 138.686 54.7234ZM138.686 40.7357C133.913 40.7357 130.023 44.3975 130.023 49.4458C130.023 54.4612 133.913 58.1558 138.686 58.1558C143.46 58.1558 147.35 54.4612 147.35 49.4458C147.35 44.3975 143.46 40.7357 138.686 40.7357Z" fill="white"/>
<defs>
<linearGradient id="paint0_linear_142_463" x1="139.5" y1="0.5" x2="139.5" y2="93.5" gradientUnits="userSpaceOnUse">
<stop stop-color="#7E9CF0"/>
<stop offset="1" stop-color="#AC7EF0"/>
</linearGradient>
</defs>
</svg>
