<svg width="100" height="101" viewBox="0 0 100 101" fill="none" xmlns="http://www.w3.org/2000/svg">
<path fill-rule="evenodd" clip-rule="evenodd" d="M21.0105 15.0271C20.9874 14.7545 20.9108 14.489 20.7851 14.246C20.6594 14.003 20.4871 13.7871 20.278 13.6106C20.0688 13.4342 19.827 13.3007 19.5663 13.2177C19.3055 13.1348 19.031 13.104 18.7584 13.1271L14.6063 13.4813C14.0561 13.5279 13.5469 13.7911 13.1906 14.213C12.8343 14.6349 12.6601 15.181 12.7063 15.7313L13.3917 23.7917C13.092 24.0007 12.8525 24.2848 12.6973 24.6156C12.5421 24.9464 12.4766 25.3122 12.5074 25.6763C12.5382 26.0404 12.6643 26.3899 12.8729 26.6899C13.0815 26.9899 13.3653 27.2298 13.6959 27.3854L14.425 35.9729C14.4481 36.2458 14.5248 36.5114 14.6506 36.7545C14.7764 36.9977 14.9489 37.2137 15.1583 37.3902C15.3676 37.5667 15.6097 37.7001 15.8707 37.783C16.1317 37.8658 16.4064 37.8964 16.6792 37.8729L20.8313 37.5188C21.3811 37.4716 21.8898 37.2082 22.2456 36.7863C22.6015 36.3645 22.7754 35.8187 22.7292 35.2688L21.9605 26.2146C23.0216 26.0243 24.0653 25.8438 25.0917 25.6729C25.3125 29.1104 25.9459 34.9417 27.1188 40.4334C27.8667 43.9334 28.8917 47.5875 30.3167 50.4625C31.025 51.8959 31.9459 53.3625 33.1646 54.5209C34.2438 55.5459 35.7 56.4521 37.5 56.6896V65.7146L36.823 65.4709L36.3584 65.3042C34.2646 64.5542 32.1355 63.7917 30.5125 63.3813C29.723 63.1813 28.5292 62.9209 27.3584 63.025C26.3587 63.1008 25.405 63.4754 24.6209 64.1C24.0846 64.5368 23.6532 65.0882 23.3583 65.7138C23.0633 66.3393 22.9124 67.023 22.9167 67.7146C22.9167 69.4292 23.5021 73.8396 24 77.3625C24.307 79.5373 24.6265 81.7102 24.9584 83.8813L25.025 84.3167L25.0438 84.4313L25.048 84.4604V84.4708L29.1667 83.8334L25.05 84.4729C25.2077 85.4843 25.7322 86.4023 26.5234 87.0517C27.3146 87.7012 28.3172 88.0366 29.34 87.9941C30.3627 87.9516 31.334 87.5342 32.0686 86.8213C32.8032 86.1085 33.2497 85.1502 33.323 84.1292L34.0938 73.3459C36.4063 74.175 39.1105 75.1313 41.7771 75.8813C44.4292 76.6271 47.3396 77.2563 50 77.2563C52.6605 77.2563 55.5709 76.6271 58.225 75.8813C60.8709 75.1375 63.548 74.1896 65.85 73.3667L66.6792 84.1521C66.7583 85.1704 67.2086 86.1242 67.9447 86.8322C68.6808 87.5403 69.6513 87.9534 70.6719 87.993C71.6924 88.0326 72.692 87.6959 73.4807 87.047C74.2694 86.3981 74.7923 85.482 74.95 84.4729L70.8334 83.8334L74.9521 84.4708V84.4584L74.9584 84.4292L74.975 84.3146L75.0417 83.8771C75.3733 81.7067 75.6927 79.5344 76 77.3604C76.5 73.8375 77.0834 69.4271 77.0834 67.7146C77.0834 66.4854 76.6042 65.0938 75.3813 64.0979C74.5966 63.4729 73.6421 63.0983 72.6417 63.0229C71.4709 62.9188 70.2771 63.1792 69.4896 63.3771C67.8646 63.7896 65.7375 64.5521 63.6438 65.3021L63.1792 65.4688L62.5 65.7125V56.6979C66.4375 56.2584 68.823 53.0667 70.1396 50.5271C71.6625 47.5854 72.6584 43.8667 73.3334 40.3479C74.3917 34.85 74.8105 29.0771 74.9459 25.6979C75.9598 25.8646 76.991 26.041 78.0396 26.2271L77.2709 35.2667C77.2247 35.817 77.3989 36.363 77.7552 36.7849C78.1115 37.2068 78.6206 37.47 79.1709 37.5167L83.323 37.8709C83.8732 37.917 84.4193 37.7428 84.8412 37.3865C85.2631 37.0303 85.5263 36.5211 85.573 35.9708L86.3042 27.3834C86.6358 27.2286 86.9206 26.9892 87.13 26.6891C87.3394 26.3891 87.466 26.0391 87.4968 25.6745C87.5277 25.31 87.4618 24.9437 87.3058 24.6127C87.1498 24.2818 86.9092 23.9978 86.6084 23.7896L87.2959 15.7292C87.342 15.1786 87.1675 14.6322 86.8108 14.2103C86.4541 13.7883 85.9444 13.5253 85.3938 13.4792L81.2438 13.125C80.9712 13.1019 80.6966 13.1327 80.4359 13.2156C80.1752 13.2986 79.9333 13.4321 79.7242 13.6085C79.5151 13.785 79.3427 14.0009 79.2171 14.2439C79.0914 14.487 79.0148 14.7524 78.9917 15.025L78.3938 22.0584C77.0921 21.8294 75.7885 21.6106 74.4834 21.4021C74.172 20.8374 73.7337 20.3527 73.2031 19.9861C72.6726 19.6195 72.0642 19.3811 71.4258 19.2896C70.7874 19.1981 70.1365 19.2561 69.5243 19.4589C68.9122 19.6617 68.3554 20.0038 67.898 20.4584C55.2375 18.8604 44.5188 18.8625 32.0813 20.4375C31.6238 19.9899 31.0694 19.6538 30.461 19.4551C29.8526 19.2564 29.2067 19.2005 28.5732 19.2918C27.9398 19.3831 27.3358 19.619 26.8083 19.9814C26.2808 20.3437 25.8438 20.8228 25.5313 21.3813C24.2466 21.5854 22.9382 21.8063 21.6063 22.0438L21.0105 15.0271ZM35.2667 38.6938C34.2973 34.0052 33.6624 29.2536 33.3667 24.475C44.8896 23.0729 54.9209 23.0729 66.648 24.5042C66.5709 27.2792 66.2146 33.2417 65.15 38.775C64.525 42.0271 63.7125 44.8188 62.7396 46.6959C62.0771 47.9729 61.625 48.3313 61.473 48.4167H38.8417C38.6 48.1646 38.225 47.6542 37.7834 46.7625C36.8209 44.8188 35.9667 41.9646 35.2667 38.6938ZM59.375 34.875C59.375 37.3614 58.3873 39.746 56.6292 41.5041C54.871 43.2623 52.4864 44.25 50 44.25C47.5136 44.25 45.1291 43.2623 43.3709 41.5041C41.6128 39.746 40.625 37.3614 40.625 34.875C40.625 32.3886 41.6128 30.004 43.3709 28.2459C45.1291 26.4877 47.5136 25.5 50 25.5C52.4864 25.5 54.871 26.4877 56.6292 28.2459C58.3873 30.004 59.375 32.3886 59.375 34.875Z" fill="white"/>
</svg>
