<svg width="100" height="101" viewBox="0 0 100 101" fill="none" xmlns="http://www.w3.org/2000/svg">
<path d="M63.5417 27.5834C66.0281 27.5834 68.4127 26.5957 70.1708 24.8375C71.929 23.0793 72.9167 20.6948 72.9167 18.2084C72.9167 15.722 71.929 13.3374 70.1708 11.5792C68.4127 9.82109 66.0281 8.83337 63.5417 8.83337C61.0553 8.83337 58.6707 9.82109 56.9126 11.5792C55.1544 13.3374 54.1667 15.722 54.1667 18.2084C54.1667 20.6948 55.1544 23.0793 56.9126 24.8375C58.6707 26.5957 61.0553 27.5834 63.5417 27.5834ZM44.7083 36.5042C42.1104 37.15 40.3375 38.1209 38.9063 39.325C36.7604 41.1334 35.0271 43.7417 32.6854 47.8417C32.137 48.8012 31.23 49.5035 30.1637 49.7942C29.0975 50.0849 27.9595 49.9401 27 49.3917C26.0405 48.8433 25.3382 47.9362 25.0475 46.87C24.7568 45.8038 24.9016 44.6658 25.45 43.7063C27.7813 39.6292 30.1375 35.8146 33.5396 32.9521C37.0896 29.9605 41.4354 28.2688 47.2958 27.6167C49.7458 27.3459 52.4417 27.4 54.9688 28.5271C57.6208 29.7125 59.5583 31.8355 60.8792 34.673C62.6583 38.4917 63.9813 40.7646 65.0396 42.0834C65.55 42.7146 65.9063 43.0084 66.1083 43.1396C66.2688 43.2438 66.3375 43.2521 66.3625 43.2563C66.5438 43.2771 67.1333 43.2563 68.8583 42.4917C69.6104 42.1584 70.4313 41.7584 71.4354 41.2688L71.675 41.1521C72.9031 40.5462 74.1422 39.9628 75.3917 39.4021C76.4004 38.9593 77.5435 38.934 78.5709 39.3317C79.5983 39.7295 80.4263 40.5179 80.8739 41.5246C81.3215 42.5313 81.3521 43.6743 80.9592 44.7035C80.5662 45.7327 79.7817 46.5644 78.7771 47.0167C77.6192 47.5362 76.4711 48.0773 75.3333 48.6396L75.0604 48.773C74.1 49.2417 73.1333 49.7146 72.2271 50.1146C70.3521 50.9438 67.9563 51.8438 65.3583 51.5292C62.6167 51.1959 60.5042 49.648 58.7646 47.5709L53.0708 58.5563L60.9458 68.8021C61.4154 69.4137 61.706 70.1435 61.7854 70.9105L63.5188 87.5688C63.5848 88.1176 63.541 88.6741 63.3898 89.2059C63.2387 89.7376 62.9832 90.2339 62.6383 90.666C62.2935 91.098 61.8661 91.4571 61.381 91.7223C60.896 91.9875 60.3631 92.1536 59.8132 92.2108C59.2634 92.2681 58.7077 92.2153 58.1784 92.0556C57.6492 91.896 57.157 91.6326 56.7306 91.2808C56.3041 90.929 55.952 90.4959 55.6945 90.0067C55.4371 89.5175 55.2797 88.982 55.2313 88.4313L53.6188 72.9459L48.8354 66.7209L48.7938 66.798L48.6188 66.4396L39.7813 54.9396C39.3468 54.3744 39.0647 53.7071 38.9618 53.0017C38.859 52.2962 38.9388 51.5762 39.1938 50.9105L44.7083 36.5042Z" fill="white"/>
<path d="M38.4 60.9313L35.3333 69.1813L23.25 68.2229C22.7006 68.1719 22.1466 68.2305 21.6201 68.3953C21.0935 68.5602 20.6049 68.8279 20.1827 69.183C19.7605 69.5382 19.413 69.9737 19.1604 70.4642C18.9078 70.9547 18.7551 71.4905 18.7112 72.0405C18.6674 72.5905 18.7332 73.1437 18.9048 73.668C19.0765 74.1924 19.3506 74.6774 19.7112 75.095C20.0718 75.5126 20.5117 75.8544 21.0055 76.1006C21.4992 76.3468 22.037 76.4925 22.5875 76.5292L37.8125 77.7375C38.7161 77.8094 39.6185 77.5847 40.3828 77.0975C41.1471 76.6102 41.7317 75.887 42.0479 75.0375L44.3917 68.7292L38.4 60.9313Z" fill="white"/>
</svg>
