<svg width="343" height="110" viewBox="0 0 343 110" fill="none" xmlns="http://www.w3.org/2000/svg">
<g filter="url(#filter0_d_142_985)">
<path d="M27.3843 43.8027L48.2596 89.1663H40.6655L33.9078 74.3796H14.8725L7.88066 89.1663H4.13382L25.5109 43.8027H27.3843ZM16.1772 71.5026H32.5362L24.4738 53.9393L16.1772 71.5026ZM70.0782 64.5442C69.8329 63.6521 69.4984 62.7488 69.0746 61.8344C68.6509 60.92 68.1044 60.0948 67.4354 59.3588C66.7886 58.6005 66.0192 57.9872 65.127 57.5188C64.2349 57.0505 63.1867 56.8163 61.9824 56.8163C60.4435 56.8163 59.0607 57.1285 57.8341 57.753C56.6074 58.3775 55.5704 59.225 54.7229 60.2955C53.8754 61.366 53.2286 62.615 52.7825 64.0423C52.3365 65.4697 52.1135 66.9863 52.1135 68.5921C52.1135 70.7777 52.3922 72.8519 52.9498 74.8145C53.5297 76.7548 54.3326 78.461 55.3585 79.933C56.4067 81.4049 57.6557 82.5758 59.1053 83.4456C60.5773 84.2931 62.2166 84.7169 64.0231 84.7169C65.6066 84.7169 66.9782 84.4716 68.1379 83.9809C69.3199 83.4679 70.3347 82.7877 71.1822 81.9402C72.052 81.0927 72.7992 80.1114 73.4236 78.9963C74.0481 77.8588 74.6057 76.6656 75.0963 75.4167L77.137 76.253C76.5571 78.3941 75.7766 80.3121 74.7952 82.0071C73.8139 83.7021 72.6542 85.1406 71.316 86.3227C70.0002 87.4824 68.5059 88.3745 66.8332 88.999C65.1828 89.6012 63.3874 89.9022 61.4471 89.9022C59.1945 89.9022 57.0869 89.4673 55.1243 88.5975C53.1617 87.7054 51.4555 86.4899 50.0059 84.9511C48.5562 83.4122 47.4076 81.6168 46.5601 79.565C45.7126 77.5131 45.2889 75.3163 45.2889 72.9746C45.2889 71.2572 45.5007 69.6069 45.9245 68.0234C46.3482 66.4176 46.9393 64.9233 47.6975 63.5405C48.4781 62.1578 49.4037 60.8977 50.4742 59.7602C51.567 58.6228 52.7714 57.6526 54.0872 56.8497C55.4031 56.0246 56.8082 55.3889 58.3024 54.9429C59.819 54.4968 61.3914 54.2738 63.0194 54.2738C64.3799 54.2738 65.6846 54.4299 66.9336 54.7422C68.1825 55.0544 69.3311 55.5004 70.3793 56.0803C71.4275 56.6379 72.3531 57.3404 73.156 58.1879C73.9589 59.0131 74.5834 59.9387 75.0294 60.9646L70.0782 64.5442ZM87.1464 43.2674H89.0868V54.9094H96.7143V57.8199H89.0868V81.9402C89.0868 82.4532 89.176 82.9327 89.3544 83.3787C89.5551 83.8248 89.8116 84.2151 90.1238 84.5496C90.4584 84.8842 90.8487 85.1518 91.2947 85.3525C91.7408 85.5309 92.2314 85.6201 92.7667 85.6201C93.525 85.6201 94.2164 85.4306 94.8408 85.0514C95.4653 84.6723 96.0117 84.2039 96.4801 83.6464L98.1862 84.7838C97.2495 86.3673 96.034 87.6162 94.5398 88.5306C93.0455 89.445 91.1944 89.9022 88.9864 89.9022C87.849 89.9022 86.8565 89.7015 86.009 89.3001C85.1615 88.9209 84.459 88.3857 83.9014 87.6943C83.3661 86.9806 82.9647 86.1443 82.6971 85.1852C82.4294 84.2039 82.2956 83.1222 82.2956 81.9402V57.8199H76.3408V56.5487L82.2956 54.9094V45.1743L87.1464 43.2674ZM100.869 56.2141L105.653 54.2738H107.627V89.1663H100.869V56.2141ZM100.334 41.7955C100.334 41.2602 100.434 40.7584 100.635 40.29C100.836 39.8217 101.115 39.4091 101.471 39.0523C101.828 38.6954 102.241 38.4166 102.709 38.2159C103.178 38.0152 103.679 37.9148 104.215 37.9148C104.75 37.9148 105.252 38.0152 105.72 38.2159C106.188 38.4166 106.601 38.6954 106.958 39.0523C107.315 39.4091 107.593 39.8217 107.794 40.29C107.995 40.7584 108.095 41.2602 108.095 41.7955C108.095 42.3307 107.995 42.8325 107.794 43.3009C107.593 43.7693 107.315 44.1819 106.958 44.5387C106.601 44.8955 106.188 45.1743 105.72 45.375C105.252 45.5758 104.75 45.6761 104.215 45.6761C103.679 45.6761 103.178 45.5758 102.709 45.375C102.241 45.1743 101.828 44.8955 101.471 44.5387C101.115 44.1819 100.836 43.7693 100.635 43.3009C100.434 42.8325 100.334 42.3307 100.334 41.7955ZM114.793 54.9094L126.903 80.8362L138.512 54.9094H141.589L126.167 89.5343H123.825L107.667 54.9094H114.793ZM155.178 89.9022C152.859 89.9022 150.673 89.4673 148.621 88.5975C146.592 87.7277 144.819 86.5457 143.302 85.0514C141.786 83.5571 140.581 81.8064 139.689 79.7992C138.819 77.7696 138.384 75.6174 138.384 73.3425C138.384 70.5993 138.786 68.068 139.589 65.7485C140.392 63.4067 141.529 61.3883 143.001 59.6933C144.473 57.9983 146.235 56.6713 148.287 55.7123C150.361 54.7533 152.669 54.2738 155.212 54.2738C157.442 54.2738 159.494 54.6752 161.367 55.4781C163.241 56.2587 164.847 57.3181 166.185 58.6563C167.545 59.9721 168.593 61.4998 169.329 63.2395C170.088 64.9791 170.467 66.7967 170.467 68.6924H144.941C144.941 70.9896 145.231 73.1195 145.811 75.0821C146.413 77.0448 147.25 78.7398 148.32 80.1671C149.391 81.5945 150.662 82.7096 152.134 83.5125C153.606 84.3154 155.223 84.7169 156.985 84.7169C158.457 84.7169 159.873 84.4827 161.234 84.0144C162.594 83.5237 163.821 82.8881 164.913 82.1075C166.029 81.3269 166.976 80.4348 167.757 79.4312C168.538 78.4275 169.084 77.3905 169.396 76.3199L171.37 77.1897C170.879 78.9517 170.088 80.602 168.995 82.1409C167.902 83.6798 166.62 85.0291 165.148 86.1889C163.698 87.3263 162.114 88.2295 160.397 88.8986C158.68 89.5677 156.94 89.9022 155.178 89.9022ZM161.936 65.9492C161.936 64.6557 161.702 63.4513 161.234 62.3362C160.787 61.2211 160.163 60.2621 159.36 59.4592C158.557 58.634 157.621 57.9872 156.55 57.5188C155.479 57.0505 154.331 56.8163 153.104 56.8163C152.078 56.8163 151.097 57.0505 150.16 57.5188C149.224 57.9649 148.387 58.6005 147.651 59.4257C146.915 60.2286 146.302 61.1876 145.811 62.3027C145.343 63.4179 145.064 64.6222 144.975 65.9158L161.936 65.9492Z" fill="#7E9CF0"/>
<path d="M230.071 43.8027L250.946 89.1663H243.352L236.594 74.3796H217.559L210.567 89.1663H206.82L228.197 43.8027H230.071ZM218.864 71.5026H235.222L227.16 53.9393L218.864 71.5026ZM257.108 54.9094V79.2973C257.108 80.1448 257.298 80.9477 257.677 81.706C258.078 82.4643 258.625 83.1222 259.316 83.6798C260.007 84.2374 260.799 84.6834 261.691 85.018C262.606 85.3302 263.587 85.4863 264.635 85.4863C265.304 85.4863 266.018 85.3414 266.776 85.0514C267.557 84.7615 268.315 84.3712 269.051 83.8805C269.787 83.3676 270.467 82.7766 271.092 82.1075C271.739 81.4161 272.285 80.6913 272.731 79.933V54.9094H279.489V89.1663H272.731V82.7431C272.129 83.7244 271.371 84.65 270.456 85.5198C269.564 86.3896 268.594 87.1479 267.546 87.7946C266.497 88.4414 265.416 88.9544 264.301 89.3335C263.186 89.7127 262.126 89.9022 261.123 89.9022C259.628 89.9022 258.223 89.6235 256.907 89.0659C255.591 88.5083 254.443 87.75 253.462 86.791C252.48 85.832 251.7 84.7057 251.12 83.4122C250.562 82.1186 250.283 80.747 250.283 79.2973V54.9094H257.108ZM289.565 54.2738H290.602L291.505 61.2657C292.041 60.2397 292.71 59.303 293.513 58.4555C294.316 57.608 295.196 56.8721 296.156 56.2476C297.137 55.6231 298.163 55.1436 299.233 54.8091C300.326 54.4522 301.43 54.2738 302.545 54.2738C303.549 54.2738 304.53 54.4076 305.489 54.6752C306.47 54.9429 307.385 55.3666 308.232 55.9465L306.091 61.6671C305.645 61.1765 305.177 60.7862 304.686 60.4962C304.196 60.184 303.694 59.9498 303.181 59.7937C302.668 59.6153 302.144 59.5038 301.609 59.4592C301.073 59.4146 300.538 59.3922 300.003 59.3922C299.155 59.3922 298.319 59.5149 297.494 59.7602C296.691 60.0056 295.921 60.3736 295.185 60.8642C294.449 61.3326 293.769 61.9459 293.145 62.7042C292.52 63.4402 291.974 64.31 291.505 65.3136V89.1663H284.714V56.1472L289.565 54.2738ZM328.813 89.1663C327.921 88.7202 327.163 88.0957 326.538 87.2928C325.936 86.4676 325.635 85.5309 325.635 84.4827C324.832 85.0849 324.04 85.7094 323.26 86.3561C322.502 87.0029 321.665 87.5939 320.751 88.1292C319.859 88.6421 318.855 89.0659 317.74 89.4004C316.647 89.735 315.376 89.9022 313.926 89.9022C312.588 89.9022 311.373 89.6792 310.28 89.2332C309.209 88.8094 308.295 88.2184 307.537 87.4601C306.801 86.7018 306.221 85.7986 305.797 84.7503C305.395 83.7021 305.195 82.5758 305.195 81.3715C305.195 79.8995 305.485 78.5725 306.065 77.3905C306.644 76.2084 307.436 75.1602 308.44 74.2458C309.466 73.3091 310.648 72.4839 311.986 71.7702C313.324 71.0342 314.751 70.3874 316.268 69.8299C317.785 69.25 319.346 68.7371 320.952 68.291C322.557 67.8449 324.119 67.4323 325.635 67.0532V64.9121C325.635 63.351 325.524 62.0351 325.301 60.9646C325.078 59.8941 324.732 59.0354 324.264 58.3886C323.795 57.7196 323.193 57.2512 322.457 56.9836C321.743 56.6936 320.885 56.5487 319.881 56.5487C318.922 56.5487 318.041 56.7382 317.238 57.1174C316.435 57.4965 315.722 58.0095 315.097 58.6563C314.495 59.2807 313.993 60.0279 313.592 60.8977C313.213 61.7452 312.956 62.6484 312.822 63.6074H306.6C306.778 62.1355 307.28 60.8196 308.105 59.6599C308.953 58.5001 310.012 57.53 311.283 56.7494C312.555 55.9465 313.993 55.3332 315.599 54.9094C317.227 54.4857 318.911 54.2738 320.65 54.2738C322.881 54.2738 324.754 54.4968 326.271 54.9429C327.787 55.3666 329.003 55.9688 329.917 56.7494C330.832 57.53 331.478 58.489 331.858 59.6264C332.259 60.7416 332.46 61.9794 332.46 63.3398V84.4827C332.46 85.5309 332.761 86.4676 333.363 87.2928C333.987 88.0957 334.746 88.7202 335.638 89.1663H328.813ZM325.635 69.2277C324.654 69.5399 323.639 69.8968 322.591 70.2982C321.543 70.6997 320.517 71.1569 319.513 71.6698C318.509 72.1605 317.55 72.6958 316.636 73.2756C315.722 73.8555 314.919 74.48 314.227 75.1491C313.536 75.8181 312.99 76.5207 312.588 77.2567C312.187 77.9926 311.986 78.7621 311.986 79.565C311.986 80.4125 312.142 81.2154 312.454 81.9737C312.767 82.7096 313.179 83.3676 313.692 83.9474C314.205 84.505 314.796 84.9511 315.465 85.2856C316.134 85.5978 316.826 85.754 317.539 85.754C318.298 85.754 319.022 85.6536 319.714 85.4529C320.405 85.2521 321.074 84.9845 321.721 84.65C322.368 84.2931 323.015 83.8917 323.661 83.4456C324.308 82.9996 324.966 82.5201 325.635 82.0071V69.2277Z" fill="#7E9CF0"/>
<path d="M220.133 52.1867C216.44 56.3544 213.804 61.4608 211.664 66.7322C210.177 70.3978 208.915 74.1824 207.709 77.8002C207.185 79.3725 206.671 80.9133 206.154 82.3991C204.433 87.3429 202.674 91.6788 200.348 94.7775C198.048 97.8408 195.231 99.6505 191.342 99.6505C189.397 99.6505 187.83 99.0652 186.514 98.031C185.184 96.9858 184.08 95.4574 183.124 93.5311C181.252 89.7596 180.034 84.6562 178.722 79.1596C178.687 79.0122 178.652 78.8645 178.616 78.7165C177.274 73.0954 175.819 67.1269 173.439 62.0358C171.053 56.9348 167.7 52.6298 162.511 50.431C161.195 49.8734 160.3 48.6975 160.367 47.4451C160.676 41.7173 161.974 38.2677 163.866 35.7594C165.657 33.3851 168.014 31.7981 170.809 29.9164C171.002 29.7866 171.196 29.6554 171.393 29.5225C174.425 27.4753 177.85 25.0624 181.277 21.0084C184.703 16.9556 188.108 11.2925 191.166 2.7569C191.603 1.53781 192.716 0.771747 193.8 0.962942C197.026 1.53183 199.25 3.27877 201.049 5.98522C202.871 8.72704 204.231 12.4141 205.707 16.808C205.95 17.5307 206.195 18.271 206.446 19.0274C209.229 27.4193 212.666 37.7832 220.368 47.9309C221.313 49.1753 221.202 50.9801 220.133 52.1867Z" stroke="url(#paint0_linear_142_985)" stroke-width="1.42737"/>
<path d="M212.109 51.7412C209.494 54.921 207.618 58.7394 206.084 62.6375C205.081 65.1848 204.21 67.8069 203.377 70.316C202.941 71.6289 202.515 72.9109 202.086 74.135C200.821 77.742 199.524 80.8663 197.824 83.087C196.152 85.2728 194.123 86.5436 191.342 86.5436C188.627 86.5436 186.835 84.955 185.436 82.1869C184.021 79.3859 183.105 75.5513 182.113 71.3791L182.104 71.343C181.125 67.2237 180.076 62.8114 178.383 58.9963C176.682 55.1634 174.294 51.8437 170.581 50.0152C169.261 49.3654 168.366 48.1861 168.459 46.9532C168.761 42.9663 169.747 40.5671 171.131 38.8075C172.431 37.1553 174.112 36.0193 176.125 34.6587C176.295 34.5439 176.467 34.4275 176.641 34.3091C178.864 32.8006 181.377 31.011 183.895 28.0466C186.411 25.083 188.909 20.9742 191.163 14.8385C191.618 13.599 192.718 12.8772 193.736 13.1344C195.869 13.6735 197.377 14.9931 198.629 16.9964C199.897 19.0267 200.869 21.7059 201.934 24.8941C202.1 25.3903 202.268 25.8977 202.439 26.4152C204.451 32.5046 206.93 40.008 212.33 47.4038C213.253 48.6687 213.144 50.4838 212.109 51.7412Z" stroke="url(#paint1_linear_142_985)" stroke-width="1.42737"/>
<path d="M206.104 51.8213C204.293 54.2373 202.985 57.0669 201.902 59.9152C201.261 61.6003 200.682 63.3423 200.127 65.012C199.756 66.1309 199.395 67.2173 199.033 68.2325C198.111 70.8212 197.161 73.0251 195.934 74.5789C194.733 76.099 193.297 76.9656 191.342 76.9656C189.454 76.9656 188.185 75.8947 187.17 73.9439C186.137 71.9586 185.459 69.2212 184.737 66.1873C184.705 66.055 184.674 65.9221 184.642 65.7889C183.957 62.9078 183.223 59.8184 182.089 57.0888C180.9 54.2293 179.236 51.6721 176.634 50.135C175.309 49.3528 174.414 48.1964 174.545 46.993C174.836 44.3244 175.58 42.7155 176.581 41.5174C177.511 40.4052 178.685 39.6112 180.107 38.6492C180.261 38.5455 180.417 38.4399 180.576 38.3317C182.19 37.2338 184.015 35.9217 185.847 33.7905C187.678 31.66 189.493 28.7377 191.141 24.43C191.37 23.8314 191.772 23.3163 192.235 23.0128C192.685 22.7173 193.163 22.6339 193.636 22.8086C194.975 23.3036 195.962 24.2936 196.812 25.7636C197.671 27.2504 198.353 29.1637 199.108 31.4318C199.215 31.7532 199.323 32.0808 199.434 32.4143C200.866 36.7509 202.625 42.0758 206.306 47.3704C207.206 48.6647 207.096 50.4983 206.104 51.8213Z" stroke="url(#paint2_linear_142_985)" stroke-width="1.42737"/>
<path d="M199.634 51.9871C198.649 53.5661 197.921 55.3314 197.301 57.0601C197.019 57.8458 196.757 58.6317 196.503 59.3914C196.478 59.4683 196.452 59.5448 196.427 59.6211C196.148 60.4552 195.879 61.2538 195.598 62.003C195.033 63.5148 194.447 64.7512 193.717 65.6057C193.014 66.4294 192.193 66.8833 191.09 66.8833C190.053 66.8833 189.331 66.3399 188.723 65.2529C188.093 64.1279 187.662 62.5472 187.22 60.7201C187.159 60.4672 187.097 60.2101 187.035 59.9499C186.658 58.3703 186.253 56.6767 185.686 55.1216C185.025 53.3087 184.112 51.5915 182.673 50.3961C182.059 49.8867 181.486 49.3364 181.105 48.7525C180.729 48.1775 180.574 47.6251 180.69 47.0662C180.954 45.7838 181.43 44.9916 182.036 44.3663C182.571 43.8137 183.209 43.3847 183.988 42.8598C184.139 42.7584 184.295 42.6535 184.456 42.5433C186.45 41.1844 188.817 39.3217 190.846 34.5042C191.098 33.9063 191.528 33.3846 191.98 33.1112C192.407 32.8529 192.786 32.8408 193.136 33.0803C193.729 33.4856 194.21 34.1243 194.656 35.0241C195.104 35.9273 195.486 37.0307 195.915 38.3207C195.96 38.4559 196.006 38.5929 196.052 38.7315C196.875 41.2119 197.877 44.2282 199.789 47.2814C200.644 48.6465 200.536 50.5414 199.634 51.9871Z" stroke="url(#paint3_linear_142_985)" stroke-width="1.42737"/>
<path d="M195.293 52.236C194.891 53.117 194.573 54.0394 194.284 54.9014C194.25 55.0025 194.217 55.1026 194.184 55.2015C193.93 55.9603 193.698 56.6565 193.438 57.2715C192.833 58.7016 192.236 59.3217 191.342 59.3217C190.924 59.3217 190.623 59.1391 190.335 58.6975C190.023 58.2164 189.784 57.5036 189.549 56.5976C189.468 56.2817 189.385 55.936 189.299 55.577C189.153 54.9664 188.997 54.3175 188.821 53.7112C188.536 52.7269 188.163 51.7227 187.587 50.8865C187.414 50.6347 187.216 50.3713 187.025 50.1186C186.951 50.0192 186.877 49.9214 186.807 49.8266C186.547 49.4769 186.315 49.1474 186.138 48.8275C185.778 48.1783 185.728 47.7321 185.945 47.3406C186.257 46.7806 186.688 46.4889 187.361 46.0339C187.531 45.9188 187.717 45.7931 187.92 45.65C188.891 44.966 189.993 44.0184 190.994 42.0825C191.296 41.4967 191.774 41.0031 192.195 40.7958C192.399 40.6955 192.536 40.6872 192.615 40.7027C192.674 40.7144 192.775 40.7526 192.897 40.9405C193.274 41.5247 193.555 42.3533 193.923 43.4608L193.925 43.4695C194.282 44.5416 194.703 45.8094 195.364 47.1285C196.112 48.6236 196.022 50.6355 195.293 52.236Z" stroke="url(#paint4_linear_142_985)" stroke-width="1.42737"/>
</g>
<defs>
<filter id="filter0_d_142_985" x="0.133789" y="0.218994" width="339.504" height="108.145" filterUnits="userSpaceOnUse" color-interpolation-filters="sRGB">
<feFlood flood-opacity="0" result="BackgroundImageFix"/>
<feColorMatrix in="SourceAlpha" type="matrix" values="0 0 0 0 0 0 0 0 0 0 0 0 0 0 0 0 0 0 127 0" result="hardAlpha"/>
<feOffset dy="4"/>
<feGaussianBlur stdDeviation="2"/>
<feComposite in2="hardAlpha" operator="out"/>
<feColorMatrix type="matrix" values="0 0 0 0 0 0 0 0 0 0 0 0 0 0 0 0 0 0 0.25 0"/>
<feBlend mode="normal" in2="BackgroundImageFix" result="effect1_dropShadow_142_985"/>
<feBlend mode="normal" in="SourceGraphic" in2="effect1_dropShadow_142_985" result="shape"/>
</filter>
<linearGradient id="paint0_linear_142_985" x1="191.342" y1="0.0462646" x2="191.342" y2="100.364" gradientUnits="userSpaceOnUse">
<stop offset="0.255" stop-color="#7E9CF0"/>
<stop offset="0.835" stop-color="#AC7EF0"/>
</linearGradient>
<linearGradient id="paint1_linear_142_985" x1="191.342" y1="12.1449" x2="191.342" y2="87.2573" gradientUnits="userSpaceOnUse">
<stop offset="0.255" stop-color="#7E9CF0"/>
<stop offset="0.835" stop-color="#AC7EF0"/>
</linearGradient>
<linearGradient id="paint2_linear_142_985" x1="191.342" y1="21.723" x2="191.342" y2="77.6793" gradientUnits="userSpaceOnUse">
<stop offset="0.255" stop-color="#7E9CF0"/>
<stop offset="0.835" stop-color="#AC7EF0"/>
</linearGradient>
<linearGradient id="paint3_linear_142_985" x1="191.09" y1="31.8052" x2="191.09" y2="67.597" gradientUnits="userSpaceOnUse">
<stop offset="0.255" stop-color="#7E9CF0"/>
<stop offset="0.835" stop-color="#AC7EF0"/>
</linearGradient>
<linearGradient id="paint4_linear_142_985" x1="191.342" y1="39.3668" x2="191.342" y2="60.0353" gradientUnits="userSpaceOnUse">
<stop offset="0.255" stop-color="#7E9CF0"/>
<stop offset="0.835" stop-color="#AC7EF0"/>
</linearGradient>
</defs>
</svg>
