<svg width="100" height="100" viewBox="0 0 100 100" fill="none" xmlns="http://www.w3.org/2000/svg">
<path d="M81.6667 66.5625C80.0694 66.5625 78.4903 66.3722 76.9292 65.9917C75.368 65.6111 73.8569 65.1417 72.3958 64.5833C71.1458 64.0278 69.8778 63.5417 68.5917 63.125C67.3055 62.7083 65.9694 62.5 64.5833 62.5C62.9861 62.5 61.4236 62.7778 59.8958 63.3333C58.368 63.8889 56.875 64.5486 55.4167 65.3125L52.9167 59.5833C54.7222 58.6111 56.6153 57.8125 58.5958 57.1875C60.5764 56.5625 62.5722 56.25 64.5833 56.25C66.1805 56.25 67.7611 56.4417 69.325 56.825C70.8889 57.2083 72.3986 57.6764 73.8542 58.2292C75.1042 58.7847 76.3722 59.2708 77.6583 59.6875C78.9444 60.1042 80.2805 60.3125 81.6667 60.3125C83.2639 60.3125 84.8264 60.0347 86.3542 59.4792C87.8819 58.9236 89.375 58.2639 90.8333 57.5L93.3333 63.2292C91.5278 64.2014 89.6361 65 87.6583 65.625C85.6805 66.25 83.6833 66.5625 81.6667 66.5625ZM81.6667 79.0625C80.0694 79.0625 78.4903 78.8722 76.9292 78.4917C75.368 78.1111 73.8569 77.6417 72.3958 77.0833C71.1458 76.5278 69.8778 76.0417 68.5917 75.625C67.3055 75.2083 65.9694 75 64.5833 75C62.9861 75 61.4236 75.2778 59.8958 75.8333C58.368 76.3889 56.875 77.0486 55.4167 77.8125L52.9167 72.0833C54.7222 71.1111 56.6153 70.3125 58.5958 69.6875C60.5764 69.0625 62.5722 68.75 64.5833 68.75C66.1805 68.75 67.7611 68.9417 69.325 69.325C70.8889 69.7083 72.3986 70.1764 73.8542 70.7292C75.1042 71.2847 76.3722 71.7708 77.6583 72.1875C78.9444 72.6042 80.2805 72.8125 81.6667 72.8125C83.2639 72.8125 84.8264 72.5347 86.3542 71.9792C87.8819 71.4236 89.375 70.7639 90.8333 70L93.3333 75.7292C91.5278 76.7014 89.6361 77.5 87.6583 78.125C85.6805 78.75 83.6833 79.0625 81.6667 79.0625ZM81.6667 91.5625C80.0694 91.5625 78.4903 91.3722 76.9292 90.9917C75.368 90.6111 73.8569 90.1417 72.3958 89.5833C71.1458 89.0278 69.8778 88.5417 68.5917 88.125C67.3055 87.7083 65.9694 87.5 64.5833 87.5C62.9861 87.5 61.4236 87.7778 59.8958 88.3333C58.368 88.8889 56.875 89.5486 55.4167 90.3125L52.9167 84.5833C54.7222 83.6111 56.6153 82.8125 58.5958 82.1875C60.5764 81.5625 62.5722 81.25 64.5833 81.25C66.1805 81.25 67.7611 81.4417 69.325 81.825C70.8889 82.2083 72.3986 82.6764 73.8542 83.2292C75.1042 83.7847 76.3722 84.2708 77.6583 84.6875C78.9444 85.1042 80.2805 85.3125 81.6667 85.3125C83.2639 85.3125 84.8264 85.0347 86.3542 84.4792C87.8819 83.9236 89.375 83.2639 90.8333 82.5L93.3333 88.2292C91.5278 89.2014 89.6361 90 87.6583 90.625C85.6805 91.25 83.6833 91.5625 81.6667 91.5625ZM45.8333 85.2083C37.6389 84.1667 30.7292 80.5556 25.1042 74.375C19.4792 68.1944 16.6667 60.9028 16.6667 52.5C16.6667 47.9167 17.518 43.6639 19.2208 39.7417C20.9236 35.8194 23.3361 32.3639 26.4583 29.375L50 6.25L73.5417 29.375C76.0417 31.8056 78.1083 34.5833 79.7417 37.7083C81.375 40.8333 82.468 44.2014 83.0208 47.8125H54.1667C51.875 47.8125 49.9139 48.6292 48.2833 50.2625C46.6528 51.8958 45.8361 53.8569 45.8333 56.1458V85.2083Z" fill="white"/>
</svg>
