<svg width="100" height="100" viewBox="0 0 100 100" fill="none" xmlns="http://www.w3.org/2000/svg">
<path d="M25 87.5C22.7083 87.5 20.7472 86.6848 19.1167 85.0542C17.4861 83.4236 16.6694 81.4611 16.6667 79.1667V41.6667C16.6667 40.3473 16.9625 39.0973 17.5542 37.9167C18.1458 36.7362 18.9611 35.7639 20 35L45 16.25C46.4583 15.1389 48.125 14.5834 50 14.5834C51.875 14.5834 53.5417 15.1389 55 16.25L80 35C81.0417 35.7639 81.8583 36.7362 82.45 37.9167C83.0417 39.0973 83.3361 40.3473 83.3333 41.6667V79.1667C83.3333 81.4584 82.5167 83.4209 80.8833 85.0542C79.25 86.6875 77.2889 87.5028 75 87.5H25ZM43.75 75C44.3055 75 44.7917 74.7917 45.2083 74.375C45.625 73.9584 45.8333 73.4723 45.8333 72.9167V58.3334C47.5694 58.3334 49.0458 57.7264 50.2625 56.5125C51.4792 55.2986 52.0861 53.8223 52.0833 52.0834V41.6667C52.0833 41.1112 51.875 40.625 51.4583 40.2084C51.0417 39.7917 50.5555 39.5834 50 39.5834C49.4444 39.5834 48.9583 39.7917 48.5417 40.2084C48.125 40.625 47.9167 41.1112 47.9167 41.6667V52.0834H45.8333V41.6667C45.8333 41.1112 45.625 40.625 45.2083 40.2084C44.7917 39.7917 44.3055 39.5834 43.75 39.5834C43.1944 39.5834 42.7083 39.7917 42.2917 40.2084C41.875 40.625 41.6667 41.1112 41.6667 41.6667V52.0834H39.5833V41.6667C39.5833 41.1112 39.375 40.625 38.9583 40.2084C38.5417 39.7917 38.0555 39.5834 37.5 39.5834C36.9444 39.5834 36.4583 39.7917 36.0417 40.2084C35.625 40.625 35.4167 41.1112 35.4167 41.6667V52.0834C35.4167 53.8195 36.025 55.2959 37.2417 56.5125C38.4583 57.7292 39.9333 58.3362 41.6667 58.3334V72.9167C41.6667 73.4723 41.875 73.9584 42.2917 74.375C42.7083 74.7917 43.1944 75 43.75 75ZM60.4167 75C60.9722 75 61.4583 74.7917 61.875 74.375C62.2917 73.9584 62.5 73.4723 62.5 72.9167V42.2917C62.5 41.5278 62.2403 40.8861 61.7208 40.3667C61.2014 39.8473 60.5583 39.5862 59.7917 39.5834C57.9167 39.5834 56.5111 40.4514 55.575 42.1875C54.6389 43.9237 54.1694 45.8334 54.1667 47.9167V56.25C54.1667 57.3612 54.6708 58.1431 55.6792 58.5959C56.6875 59.0486 57.5722 59.6556 58.3333 60.4167V72.9167C58.3333 73.4723 58.5417 73.9584 58.9583 74.375C59.375 74.7917 59.8611 75 60.4167 75Z" fill="white"/>
</svg>
