<svg width="100" height="101" viewBox="0 0 100 101" fill="none" xmlns="http://www.w3.org/2000/svg">
<path fill-rule="evenodd" clip-rule="evenodd" d="M55.675 15.2333C57.6917 15.6208 60.6375 16.6291 62.0584 19.4708C65.1709 25.6958 62.6 31.6124 59.8417 35.2916C58.0417 37.6916 55.725 39.9499 53.0292 41.3333C52.4667 41.6249 51.3209 42.1666 50 42.1666C47.5375 42.1666 45.125 41.0458 43.1459 39.6458C42.7709 40.9208 42.4084 42.3208 42.0959 43.8041C41.4779 46.6502 41.1429 49.5504 41.0959 52.4624C45.4834 51.0458 49.9709 51.1958 53.8375 53.3791C56.7435 51.0971 60.0856 49.4338 63.6584 48.4916C69.075 47.0708 75.575 47.2666 81.4792 51.2C85.7084 54.0208 88.9125 59.3333 89.5584 65.1458C90.2334 71.2041 88.1292 77.8291 81.7667 82.9208C77.275 86.5124 70.4292 87.8999 64.1292 88.4041C57.6084 88.9291 50.7209 88.5708 45.375 87.9749C35.4667 86.8749 27.8584 84.1083 22.5417 81.2541C19.0542 79.3791 14.2834 76.7875 12.7709 72.8166C11.75 70.125 12.0167 66.8583 12.2667 64.0583C12.6 60.3874 13.4167 55.8041 14.9459 50.8374C17.9959 40.9249 23.9667 29.1958 34.8459 20.2041C38.1917 17.4374 43.7917 15.7208 48.4792 15.1458C50.8959 14.8499 53.4375 14.8083 55.675 15.2333Z" fill="white"/>
</svg>
