<svg width="128" height="200" viewBox="0 0 128 200" fill="none" xmlns="http://www.w3.org/2000/svg">
<path d="M121.869 95.4657C123.752 97.9466 123.53 101.545 121.399 103.95C114.037 112.259 108.781 122.44 104.516 132.949C101.55 140.257 99.0343 147.802 96.6298 155.015C95.5847 158.15 94.5607 161.222 93.5297 164.184C90.0991 174.04 86.5921 182.684 81.9541 188.862C77.3691 194.969 71.7526 198.577 64 198.577C60.1217 198.577 56.9974 197.41 54.3741 195.348C51.723 193.265 49.5224 190.217 47.6163 186.377C43.8844 178.858 41.4559 168.684 38.8403 157.725C38.7701 157.431 38.6999 157.137 38.6294 156.842C35.9532 145.635 33.0532 133.736 28.3067 123.586C23.5509 113.416 16.865 104.834 6.52085 100.45C3.8979 99.3385 2.1127 96.994 2.24721 94.4972C2.8624 83.0778 5.44944 76.2005 9.22202 71.1998C12.793 66.4663 17.492 63.3025 23.0636 59.551C23.448 59.2922 23.8365 59.0306 24.2291 58.7655C30.2733 54.6842 37.1009 49.8736 43.9338 41.7915C50.7649 33.7114 57.5534 22.4212 63.6492 5.40407C64.5199 2.97363 66.7398 1.44637 68.9013 1.82754C75.3325 2.96172 79.7656 6.44451 83.3517 11.8403C86.9845 17.3065 89.6957 24.6572 92.6393 33.4172C93.1234 34.858 93.6129 36.334 94.113 37.8418C99.6614 54.5726 106.514 75.2347 121.869 95.4657Z" stroke="white" stroke-opacity="0.35" stroke-width="2.84569"/>
<path d="M105.843 94.4148C107.684 96.9366 107.466 100.555 105.403 103.062C100.189 109.402 96.4495 117.014 93.3907 124.786C91.3918 129.864 89.6551 135.092 87.9933 140.094C87.1237 142.711 86.2747 145.267 85.4192 147.708C82.8986 154.899 80.3118 161.128 76.9239 165.555C73.589 169.913 69.5449 172.446 64 172.446C58.5873 172.446 55.0139 169.279 52.226 163.761C49.405 158.176 47.5784 150.531 45.6006 142.213L45.5835 142.142C43.6307 133.929 41.539 125.132 38.1641 117.526C34.7734 109.885 30.0121 103.267 22.6088 99.6211C19.978 98.3256 18.1939 95.9746 18.3801 93.5165C18.9822 85.5679 20.9462 80.7849 23.7065 77.2768C26.2984 73.9828 29.649 71.7181 33.6624 69.0055C34.0009 68.7766 34.3442 68.5446 34.6921 68.3085C39.1243 65.301 44.1343 61.7331 49.1531 55.8231C54.1705 49.9149 59.1503 41.7233 63.6428 29.4907C64.5503 27.0197 66.7436 25.5806 68.7731 26.0934C73.0263 27.1681 76.0325 29.7989 78.5276 33.793C81.0563 37.8406 82.9944 43.182 85.1178 49.5382C85.4483 50.5274 85.7825 51.5389 86.1234 52.5707C90.1348 64.711 95.0775 79.6701 105.843 94.4148Z" stroke="white" stroke-opacity="0.35" stroke-width="2.84569"/>
<path d="M93.8339 94.3482C95.6282 96.9286 95.4086 100.584 93.4311 103.222C89.8203 108.039 87.2115 113.68 85.0522 119.358C83.7748 122.718 82.621 126.191 81.515 129.52C80.7739 131.75 80.0543 133.916 79.3334 135.94C77.4949 141.101 75.6002 145.495 73.1541 148.593C70.761 151.623 67.8966 153.351 63.9997 153.351C60.237 153.351 57.7062 151.216 55.6829 147.327C53.6238 143.369 52.2707 137.911 50.8311 131.863C50.7683 131.599 50.7054 131.334 50.6422 131.068C49.2773 125.325 47.8135 119.165 45.5518 113.723C43.1824 108.023 39.8656 102.924 34.6764 99.8599C32.0358 98.3005 30.252 95.995 30.5134 93.5959C31.0932 88.2755 32.5752 85.0681 34.572 82.6794C36.4257 80.462 38.7661 78.879 41.6017 76.9611C41.9073 76.7545 42.2187 76.5439 42.5358 76.3282C45.754 74.1393 49.393 71.5234 53.0443 67.2746C56.6946 63.027 60.313 57.2011 63.5985 48.6128C64.0549 47.4196 64.8579 46.3926 65.7795 45.7875C66.6768 45.1983 67.6313 45.0321 68.5739 45.3805C71.2438 46.3672 73.2116 48.3409 74.9049 51.2716C76.6175 54.2357 77.9773 58.0502 79.4832 62.5722C79.6966 63.2129 79.9123 63.866 80.1319 64.5309C82.9873 73.1765 86.4936 83.7926 93.8339 94.3482Z" stroke="white" stroke-opacity="0.35" stroke-width="2.84569"/>
<path d="M80.8399 94.1709C82.5443 96.8924 82.3289 100.67 80.531 103.552C78.5674 106.7 77.1163 110.22 75.8798 113.666C75.3179 115.233 74.7951 116.8 74.2896 118.314C74.2385 118.467 74.1876 118.62 74.1368 118.772C73.5815 120.435 73.0448 122.027 72.4859 123.521C71.3578 126.535 70.1896 129 68.7352 130.703C67.3333 132.346 65.697 133.25 63.4972 133.25C61.4294 133.25 59.9916 132.167 58.7781 130C57.5224 127.757 56.664 124.606 55.7816 120.963C55.6595 120.459 55.5371 119.946 55.4133 119.428C54.6613 116.278 53.8551 112.902 52.7243 109.802C51.406 106.187 49.5858 102.764 46.7161 100.381C45.4932 99.365 44.35 98.2678 43.5899 97.1037C42.8415 95.9573 42.5326 94.8562 42.7627 93.7419C43.2907 91.1851 44.2392 89.6057 45.4469 88.3592C46.5145 87.2574 47.785 86.4021 49.3394 85.3557C49.6397 85.1536 49.9506 84.9443 50.2726 84.7248C54.2465 82.0156 58.9652 78.302 63.0113 68.6975C63.5135 67.5054 64.3713 66.4654 65.2726 65.9203C66.124 65.4053 66.8783 65.3812 67.5763 65.8586C68.7579 66.6668 69.7183 67.9401 70.6072 69.7339C71.4996 71.5347 72.2612 73.7344 73.1179 76.3062C73.2077 76.5758 73.2983 76.8489 73.3901 77.1254C75.0316 82.0703 77.0277 88.0838 80.8399 94.1709Z" stroke="white" stroke-opacity="0.35" stroke-width="2.84569"/>
<path d="M72.0175 93.8661C73.5103 96.8467 73.3313 100.858 71.8767 104.049C71.076 105.805 70.4413 107.644 69.8653 109.363C69.7977 109.564 69.7311 109.764 69.6652 109.961C69.16 111.474 68.6964 112.862 68.1783 114.088C66.9735 116.939 65.7826 118.175 63.9995 118.175C63.1671 118.175 62.5656 117.811 61.9932 116.931C61.3695 115.972 60.8942 114.551 60.4261 112.744C60.2629 112.114 60.0979 111.425 59.9266 110.709C59.6352 109.492 59.3255 108.198 58.9749 106.99C58.4057 105.027 57.6626 103.025 56.5145 101.358C56.1688 100.856 55.7734 100.331 55.3942 99.8274C55.2449 99.6291 55.0981 99.4341 54.9579 99.2451C54.4402 98.5479 53.9784 97.8911 53.6249 97.2533C52.9076 95.9591 52.8071 95.0695 53.2411 94.289C53.8621 93.1725 54.7221 92.5908 56.0631 91.6838C56.4026 91.4542 56.7728 91.2038 57.1779 90.9185C59.1144 89.5547 61.3109 87.6657 63.3054 83.806C63.9089 82.6381 64.8608 81.6541 65.7002 81.2409C66.1065 81.0408 66.3805 81.0243 66.537 81.0552C66.6547 81.0785 66.8578 81.1547 67.0999 81.5292C67.8527 82.694 68.4113 84.346 69.1448 86.554L69.1506 86.5712C69.8607 88.7087 70.7004 91.2363 72.0175 93.8661Z" stroke="white" stroke-opacity="0.35" stroke-width="2.84569"/>
</svg>
